<svg version="1.1" id="Layer_1" xmlns="http://www.w3.org/2000/svg" xmlns:xlink="http://www.w3.org/1999/xlink" x="0px" y="0px"
	 width="100%" viewBox="0 0 256 256" enable-background="new 0 0 256 256" xml:space="preserve">
<path fill="#000000" opacity="1.000000" stroke="none" 
	d="
M116.000000,257.000000 
	C77.333336,257.000000 39.166672,257.000000 1.000005,257.000000 
	C1.000003,171.666672 1.000003,86.333351 1.000002,1.000017 
	C86.333321,1.000011 171.666641,1.000011 257.000000,1.000005 
	C257.000000,86.333313 257.000000,171.666626 257.000000,256.999969 
	C210.166672,257.000000 163.333328,257.000000 116.000000,257.000000 
M56.494316,82.978470 
	C68.739479,95.226120 80.993721,107.464714 93.226250,119.724960 
	C100.128334,126.642677 100.085976,131.401672 93.075829,138.423325 
	C80.486641,151.033142 67.862175,163.607788 55.292095,176.236618 
	C50.010441,181.542938 49.545609,187.639603 53.947449,192.051376 
	C58.344215,196.458008 64.455055,195.994598 69.762260,190.712189 
	C82.745270,177.789795 95.723053,164.861603 108.625069,151.858490 
	C122.232498,138.144394 122.245781,119.879051 108.648888,106.160477 
	C95.871284,93.268524 82.994621,80.474701 70.145988,67.653290 
	C69.089447,66.598991 68.006927,65.525146 66.776146,64.699356 
	C62.662403,61.939224 57.429054,62.494602 53.971439,65.939407 
	C50.512184,69.385849 49.930225,74.629486 52.698284,78.733994 
	C53.618755,80.098869 54.884476,81.230911 56.494316,82.978470 
M203.520645,170.388702 
	C202.203827,170.248489 200.887161,169.987457 199.570190,169.986008 
	C176.453751,169.960556 153.337189,169.931747 130.220871,169.987747 
	C123.358696,170.004364 119.018547,173.943741 118.898544,179.933990 
	C118.773247,186.188141 123.011276,190.351547 130.209778,190.386520 
	C153.325623,190.498871 176.442627,190.480774 199.558655,190.386673 
	C205.698776,190.361679 209.468567,187.406586 210.667847,182.330902 
	C211.749069,177.754868 209.486069,173.642227 203.520645,170.388702 
z"/>
<path fill="#31FC14" opacity="1.000000" stroke="none" 
	d="
M56.243340,82.723938 
	C54.884476,81.230911 53.618755,80.098869 52.698284,78.733994 
	C49.930225,74.629486 50.512184,69.385849 53.971439,65.939407 
	C57.429054,62.494602 62.662403,61.939224 66.776146,64.699356 
	C68.006927,65.525146 69.089447,66.598991 70.145988,67.653290 
	C82.994621,80.474701 95.871284,93.268524 108.648888,106.160477 
	C122.245781,119.879051 122.232498,138.144394 108.625069,151.858490 
	C95.723053,164.861603 82.745270,177.789795 69.762260,190.712189 
	C64.455055,195.994598 58.344215,196.458008 53.947449,192.051376 
	C49.545609,187.639603 50.010441,181.542938 55.292095,176.236618 
	C67.862175,163.607788 80.486641,151.033142 93.075829,138.423325 
	C100.085976,131.401672 100.128334,126.642677 93.226250,119.724960 
	C80.993721,107.464714 68.739479,95.226120 56.243340,82.723938 
z"/>
<path fill="#32FE14" opacity="1.000000" stroke="none" 
	d="
M203.899261,170.553467 
	C209.486069,173.642227 211.749069,177.754868 210.667847,182.330902 
	C209.468567,187.406586 205.698776,190.361679 199.558655,190.386673 
	C176.442627,190.480774 153.325623,190.498871 130.209778,190.386520 
	C123.011276,190.351547 118.773247,186.188141 118.898544,179.933990 
	C119.018547,173.943741 123.358696,170.004364 130.220871,169.987747 
	C153.337189,169.931747 176.453751,169.960556 199.570190,169.986008 
	C200.887161,169.987457 202.203827,170.248489 203.899261,170.553467 
z"/>
</svg>